# xmcd
#
# Track frame offsets: 
#        150
#        20750
#        39217
#        62503
#        88632
#        108643
#        120104
#        140402
#        153491
#        168884
#        184460
#
# Disc length: 2683 seconds
#
# Revision: 0
# Processed by: cddbd v1.5.2PL0 Copyright (c) Steve Scherf et al.
# Submitted via: ExactAudioCopy v1.0b3
#
DISCID=880a790b
DTITLE=Phil Brown - Cruel Inventions The Remix
DYEAR=2006
DGENRE=Blues-Rock
TTITLE0=The Heaven
TTITLE1=The Charmed Life
TTITLE2=The Diva (Acidized)
TTITLE3=Goodbye Pork Pie Hat
TTITLE4=The La-Lah-Land 
TTITLE5=Rolling and Tumbling
TTITLE6=The Cruel Inventions
TTITLE7=The Hour To Kill
TTITLE8=The Ahh ... Baby It's You
TTITLE9=The All Over Now
TTITLE10=The Grind Me
EXTD=
EXTT0=
EXTT1=
EXTT2=
EXTT3=
EXTT4=
EXTT5=
EXTT6=
EXTT7=
EXTT8=
EXTT9=
EXTT10=
PLAYORDER=
